<svg width="25" height="26" viewBox="0 0 25 26" fill="none" xmlns="http://www.w3.org/2000/svg">
<path d="M21.64 14.5196V20.5996C21.64 20.8012 21.56 20.9945 21.4174 21.137C21.2749 21.2796 21.0816 21.3596 20.88 21.3596H4.16002C3.95846 21.3596 3.76515 21.2796 3.62262 21.137C3.4801 20.9945 3.40002 20.8012 3.40002 20.5996V14.5196C3.40002 14.3181 3.4801 14.1248 3.62262 13.9822C3.76515 13.8397 3.95846 13.7596 4.16002 13.7596C4.36159 13.7596 4.5549 13.8397 4.69743 13.9822C4.83995 14.1248 4.92002 14.3181 4.92002 14.5196V19.8396H20.12V14.5196C20.12 14.3181 20.2001 14.1248 20.3426 13.9822C20.4852 13.8397 20.6785 13.7596 20.88 13.7596C21.0816 13.7596 21.2749 13.8397 21.4174 13.9822C21.56 14.1248 21.64 14.3181 21.64 14.5196ZM11.9823 15.0573C12.0529 15.128 12.1367 15.184 12.229 15.2223C12.3213 15.2605 12.4201 15.2802 12.52 15.2802C12.6199 15.2802 12.7188 15.2605 12.8111 15.2223C12.9033 15.184 12.9871 15.128 13.0577 15.0573L16.8577 11.2573C16.9283 11.1867 16.9843 11.1029 17.0226 11.0106C17.0608 10.9184 17.0804 10.8195 17.0804 10.7196C17.0804 10.6198 17.0608 10.5209 17.0226 10.4286C16.9843 10.3364 16.9283 10.2525 16.8577 10.1819C16.7871 10.1113 16.7033 10.0553 16.611 10.0171C16.5188 9.97887 16.4199 9.95921 16.32 9.95921C16.2202 9.95921 16.1213 9.97887 16.029 10.0171C15.9368 10.0553 15.8529 10.1113 15.7823 10.1819L13.28 12.6852V3.87963C13.28 3.67806 13.2 3.48476 13.0574 3.34223C12.9149 3.1997 12.7216 3.11963 12.52 3.11963C12.3185 3.11963 12.1252 3.1997 11.9826 3.34223C11.8401 3.48476 11.76 3.67806 11.76 3.87963V12.6852L9.25772 10.1819C9.11512 10.0393 8.9217 9.95921 8.72002 9.95921C8.51835 9.95921 8.32493 10.0393 8.18232 10.1819C8.03972 10.3245 7.9596 10.518 7.9596 10.7196C7.9596 10.9213 8.03972 11.1147 8.18232 11.2573L11.9823 15.0573Z" fill="white"/>
</svg>
