<svg width="25" height="18" viewBox="0 0 25 18" fill="none" xmlns="http://www.w3.org/2000/svg">
<path d="M24.5689 17.1899H0.431054C0.193017 17.1899 0 16.9968 0 16.7588V1.2416C0 1.00356 0.193017 0.810547 0.431054 0.810547H24.5689C24.807 0.810547 25 1.00356 25 1.2416V16.7588C25 16.9969 24.8069 17.1899 24.5689 17.1899Z" fill="#F5F5F5"/>
<path d="M25 2.07055H0V1.2416C0 1.00356 0.193017 0.810547 0.431054 0.810547H24.5689C24.807 0.810547 25 1.00356 25 1.2416L25 2.07055Z" fill="#FF4B55"/>
<path d="M25 5.84961H0V7.10957H25V5.84961Z" fill="#FF4B55"/>
<path d="M25 3.33008H0V4.59004H25V3.33008Z" fill="#FF4B55"/>
<path d="M25 9.62915H0.431054C0.193017 9.62915 0 9.43613 0 9.19809V8.36914H25V9.62915Z" fill="#FF4B55"/>
<path d="M25 13.4082H0V14.6682H25V13.4082Z" fill="#FF4B55"/>
<path d="M24.5689 17.1877H0.431054C0.193017 17.1877 0 16.9947 0 16.7566V15.9277H25V16.7567C25 16.9947 24.8069 17.1877 24.5689 17.1877Z" fill="#FF4B55"/>
<path d="M25 10.8887H0V12.1486H25V10.8887Z" fill="#FF4B55"/>
<path d="M11.2069 0.810547H0.431054C0.193017 0.810547 0 1.00352 0 1.24155V9.19906C0 9.43709 0.193017 9.63011 0.431054 9.63011H11.2069C11.4449 9.63011 11.638 9.43709 11.638 9.19906V1.24155C11.6379 1.00352 11.4449 0.810547 11.2069 0.810547Z" fill="#41479B"/>
<path d="M1.20978 1.80318L1.30519 2.08931L1.6068 2.09161C1.64586 2.09195 1.66203 2.14175 1.63063 2.16495L1.388 2.34415L1.47902 2.63169C1.49084 2.6689 1.4484 2.69976 1.41662 2.67701L1.17126 2.50166L0.925896 2.67705C0.894109 2.69976 0.851775 2.66895 0.863494 2.63174L0.954509 2.34419L0.711883 2.165C0.680486 2.14175 0.696648 2.092 0.735711 2.09166L1.03732 2.08936L1.13273 1.80323C1.14504 1.76612 1.19738 1.76612 1.20978 1.80318Z" fill="#F5F5F5"/>
<path d="M1.20978 3.29924L1.30519 3.58537L1.6068 3.58766C1.64586 3.58801 1.66203 3.63781 1.63063 3.661L1.388 3.8402L1.47902 4.12775C1.49084 4.16496 1.4484 4.19582 1.41662 4.17306L1.17126 3.99772L0.925896 4.17311C0.894109 4.19582 0.851775 4.16501 0.863494 4.1278L0.954509 3.84025L0.711883 3.66105C0.680486 3.63781 0.696648 3.58805 0.735711 3.58771L1.03732 3.58542L1.13273 3.29929C1.14504 3.26223 1.19738 3.26223 1.20978 3.29924Z" fill="#F5F5F5"/>
<path d="M1.20978 4.79533L1.30519 5.08146L1.6068 5.08376C1.64586 5.0841 1.66203 5.13391 1.63063 5.1571L1.388 5.3363L1.47902 5.62385C1.49084 5.66105 1.4484 5.69191 1.41662 5.66916L1.17126 5.49382L0.925896 5.66921C0.894109 5.69191 0.851775 5.6611 0.863494 5.6239L0.954509 5.33635L0.711883 5.15715C0.680486 5.13391 0.696648 5.08415 0.735711 5.08381L1.03732 5.08151L1.13273 4.79538C1.14504 4.75832 1.19738 4.75832 1.20978 4.79533Z" fill="#F5F5F5"/>
<path d="M1.20978 6.29537L1.30519 6.5815L1.6068 6.58379C1.64586 6.58414 1.66203 6.63394 1.63063 6.65713L1.388 6.83633L1.47902 7.12388C1.49084 7.16109 1.4484 7.19195 1.41662 7.16919L1.17126 6.99385L0.925896 7.16924C0.894109 7.19195 0.851775 7.16114 0.863494 7.12393L0.954509 6.83638L0.711883 6.65718C0.680486 6.63394 0.696648 6.58419 0.735711 6.58384L1.03732 6.58155L1.13273 6.29542C1.14504 6.25831 1.19738 6.25831 1.20978 6.29537Z" fill="#F5F5F5"/>
<path d="M1.20978 7.7915L1.30519 8.07763L1.6068 8.07993C1.64586 8.08027 1.66203 8.13007 1.63063 8.15327L1.388 8.33247L1.47902 8.62002C1.49084 8.65722 1.4484 8.68808 1.41662 8.66533L1.17126 8.48999L0.925896 8.66538C0.894109 8.68808 0.851775 8.65727 0.863494 8.62006L0.954509 8.33251L0.711883 8.15332C0.680486 8.13007 0.696648 8.08032 0.735711 8.07998L1.03732 8.07768L1.13273 7.79155C1.14504 7.75439 1.19738 7.75439 1.20978 7.7915Z" fill="#F5F5F5"/>
<path d="M2.37384 2.53362L2.46925 2.81975L2.77086 2.82205C2.80993 2.82239 2.82609 2.87219 2.79469 2.89538L2.55207 3.07458L2.64308 3.36213C2.6549 3.39934 2.61247 3.4302 2.58068 3.40744L2.33532 3.23205L2.08996 3.40744C2.05817 3.43015 2.01584 3.39934 2.02756 3.36213L2.11857 3.07458L1.87595 2.89538C1.84455 2.87214 1.86071 2.82239 1.89977 2.82205L2.20138 2.81975L2.29679 2.53362C2.30905 2.49661 2.36149 2.49661 2.37384 2.53362Z" fill="#F5F5F5"/>
<path d="M2.37384 4.02975L2.46925 4.31588L2.77086 4.31817C2.80993 4.31852 2.82609 4.36832 2.79469 4.39151L2.55207 4.57071L2.64308 4.85826C2.6549 4.89547 2.61247 4.92632 2.58068 4.90357L2.33532 4.72818L2.08996 4.90357C2.05817 4.92628 2.01584 4.89551 2.02756 4.85826L2.11857 4.57071L1.87595 4.39151C1.84455 4.36827 1.86071 4.31852 1.89977 4.31817L2.20138 4.31588L2.29679 4.02975C2.30905 3.99269 2.36149 3.99269 2.37384 4.02975Z" fill="#F5F5F5"/>
<path d="M2.37384 5.53365L2.46925 5.81979L2.77086 5.82208C2.80993 5.82242 2.82609 5.87223 2.79469 5.89542L2.55207 6.07462L2.64308 6.36217C2.6549 6.39937 2.61247 6.43023 2.58068 6.40748L2.33532 6.23209L2.08996 6.40748C2.05817 6.43019 2.01584 6.39937 2.02756 6.36217L2.11857 6.07462L1.87595 5.89542C1.84455 5.87218 1.86071 5.82242 1.89977 5.82208L2.20138 5.81979L2.29679 5.53365C2.30905 5.49659 2.36149 5.49659 2.37384 5.53365Z" fill="#F5F5F5"/>
<path d="M2.37384 7.02581L2.46925 7.31194L2.77086 7.31423C2.80993 7.31457 2.82609 7.36438 2.79469 7.38757L2.55207 7.56677L2.64308 7.85432C2.6549 7.89153 2.61247 7.92239 2.58068 7.89963L2.33532 7.72424L2.08996 7.89963C2.05817 7.92234 2.01584 7.89153 2.02756 7.85432L2.11857 7.56677L1.87595 7.38757C1.84455 7.36433 1.86071 7.31457 1.89977 7.31423L2.20138 7.31194L2.29679 7.02581C2.30905 6.98879 2.36149 6.98879 2.37384 7.02581Z" fill="#F5F5F5"/>
<path d="M3.534 1.80319L3.62941 2.08932L3.93102 2.09161C3.97009 2.09195 3.98625 2.14176 3.95485 2.16495L3.71222 2.34415L3.80324 2.6317C3.81506 2.66891 3.77262 2.69976 3.74084 2.67701L3.49548 2.50162L3.25011 2.67701C3.21833 2.69972 3.17599 2.66891 3.18771 2.6317L3.27873 2.34415L3.0361 2.16495C3.00471 2.14171 3.02087 2.09195 3.05993 2.09161L3.36154 2.08932L3.45695 1.80319C3.46926 1.76613 3.52165 1.76613 3.534 1.80319Z" fill="#F5F5F5"/>
<path d="M3.534 3.29924L3.62941 3.58538L3.93102 3.58767C3.97009 3.58801 3.98625 3.63782 3.95485 3.66101L3.71222 3.84021L3.80324 4.12776C3.81506 4.16496 3.77262 4.19582 3.74084 4.17307L3.49548 3.99768L3.25011 4.17307C3.21833 4.19577 3.17599 4.16496 3.18771 4.12776L3.27873 3.84021L3.0361 3.66101C3.00471 3.63777 3.02087 3.58801 3.05993 3.58767L3.36154 3.58538L3.45695 3.29924C3.46926 3.26223 3.52165 3.26223 3.534 3.29924Z" fill="#F5F5F5"/>
<path d="M3.534 4.79534L3.62941 5.08147L3.93102 5.08377C3.97009 5.08411 3.98625 5.13391 3.95485 5.15711L3.71222 5.33631L3.80324 5.62386C3.81506 5.66106 3.77262 5.69192 3.74084 5.66917L3.49548 5.49378L3.25011 5.66917C3.21833 5.69187 3.17599 5.66106 3.18771 5.62386L3.27873 5.33631L3.0361 5.15711C3.00471 5.13386 3.02087 5.08411 3.05993 5.08377L3.36154 5.08147L3.45695 4.79534C3.46926 4.75833 3.52165 4.75833 3.534 4.79534Z" fill="#F5F5F5"/>
<path d="M3.534 6.29537L3.62941 6.58151L3.93102 6.5838C3.97009 6.58414 3.98625 6.63395 3.95485 6.65714L3.71222 6.83634L3.80324 7.12389C3.81506 7.16109 3.77262 7.19195 3.74084 7.1692L3.49548 6.99381L3.25011 7.1692C3.21833 7.19191 3.17599 7.16109 3.18771 7.12389L3.27873 6.83634L3.0361 6.65714C3.00471 6.6339 3.02087 6.58414 3.05993 6.5838L3.36154 6.58151L3.45695 6.29537C3.46926 6.25831 3.52165 6.25831 3.534 6.29537Z" fill="#F5F5F5"/>
<path d="M3.534 7.7915L3.62941 8.07764L3.93102 8.07993C3.97009 8.08027 3.98625 8.13008 3.95485 8.15327L3.71222 8.33247L3.80324 8.62002C3.81506 8.65723 3.77262 8.68809 3.74084 8.66533L3.49548 8.48994L3.25011 8.66533C3.21833 8.68804 3.17599 8.65723 3.18771 8.62002L3.27873 8.33247L3.0361 8.15327C3.00471 8.13003 3.02087 8.08027 3.05993 8.07993L3.36154 8.07764L3.45695 7.7915C3.46926 7.75439 3.52165 7.75439 3.534 7.7915Z" fill="#F5F5F5"/>
<path d="M4.69416 2.53362L4.78957 2.81975L5.09118 2.82205C5.13024 2.82239 5.1464 2.87219 5.11501 2.89538L4.87238 3.07458L4.9634 3.36213C4.97521 3.39934 4.93278 3.4302 4.90099 3.40744L4.65563 3.23205L4.41027 3.40744C4.37848 3.43015 4.33615 3.39934 4.34787 3.36213L4.43888 3.07458L4.19626 2.89538C4.16486 2.87214 4.18102 2.82239 4.22009 2.82205L4.5217 2.81975L4.61711 2.53362C4.62936 2.49661 4.6818 2.49661 4.69416 2.53362Z" fill="#F5F5F5"/>
<path d="M4.69416 4.02975L4.78957 4.31588L5.09118 4.31817C5.13024 4.31852 5.1464 4.36832 5.11501 4.39151L4.87238 4.57071L4.9634 4.85826C4.97521 4.89547 4.93278 4.92632 4.90099 4.90357L4.65563 4.72818L4.41027 4.90357C4.37848 4.92628 4.33615 4.89551 4.34787 4.85826L4.43888 4.57071L4.19626 4.39151C4.16486 4.36827 4.18102 4.31852 4.22009 4.31817L4.5217 4.31588L4.61711 4.02975C4.62936 3.99269 4.6818 3.99269 4.69416 4.02975Z" fill="#F5F5F5"/>
<path d="M4.69416 5.53365L4.78957 5.81979L5.09118 5.82208C5.13024 5.82242 5.1464 5.87223 5.11501 5.89542L4.87238 6.07462L4.9634 6.36217C4.97521 6.39937 4.93278 6.43023 4.90099 6.40748L4.65563 6.23209L4.41027 6.40748C4.37848 6.43019 4.33615 6.39937 4.34787 6.36217L4.43888 6.07462L4.19626 5.89542C4.16486 5.87218 4.18102 5.82242 4.22009 5.82208L4.5217 5.81979L4.61711 5.53365C4.62936 5.49659 4.6818 5.49659 4.69416 5.53365Z" fill="#F5F5F5"/>
<path d="M4.69416 7.02581L4.78957 7.31194L5.09118 7.31423C5.13024 7.31457 5.1464 7.36438 5.11501 7.38757L4.87238 7.56677L4.9634 7.85432C4.97521 7.89153 4.93278 7.92239 4.90099 7.89963L4.65563 7.72424L4.41027 7.89963C4.37848 7.92234 4.33615 7.89153 4.34787 7.85432L4.43888 7.56677L4.19626 7.38757C4.16486 7.36433 4.18102 7.31457 4.22009 7.31423L4.5217 7.31194L4.61711 7.02581C4.62936 6.98879 4.6818 6.98879 4.69416 7.02581Z" fill="#F5F5F5"/>
<path d="M5.85827 1.80319L5.95368 2.08932L6.25529 2.09161C6.29435 2.09195 6.31051 2.14176 6.27912 2.16495L6.03649 2.34415L6.12751 2.6317C6.13932 2.66891 6.09689 2.69976 6.0651 2.67701L5.81969 2.50162L5.57433 2.67701C5.54255 2.69972 5.50021 2.66891 5.51193 2.6317L5.60295 2.34415L5.36032 2.16495C5.32892 2.14171 5.34509 2.09195 5.38415 2.09161L5.68576 2.08932L5.78117 1.80319C5.79352 1.76613 5.84591 1.76613 5.85827 1.80319Z" fill="#F5F5F5"/>
<path d="M5.85827 3.29924L5.95368 3.58538L6.25529 3.58767C6.29435 3.58801 6.31051 3.63782 6.27912 3.66101L6.03649 3.84021L6.12751 4.12776C6.13932 4.16496 6.09689 4.19582 6.0651 4.17307L5.81969 3.99768L5.57433 4.17307C5.54255 4.19577 5.50021 4.16496 5.51193 4.12776L5.60295 3.84021L5.36032 3.66101C5.32892 3.63777 5.34509 3.58801 5.38415 3.58767L5.68576 3.58538L5.78117 3.29924C5.79352 3.26223 5.84591 3.26223 5.85827 3.29924Z" fill="#F5F5F5"/>
<path d="M5.85827 4.79534L5.95368 5.08147L6.25529 5.08377C6.29435 5.08411 6.31051 5.13391 6.27912 5.15711L6.03649 5.33631L6.12751 5.62386C6.13932 5.66106 6.09689 5.69192 6.0651 5.66917L5.81969 5.49378L5.57433 5.66917C5.54255 5.69187 5.50021 5.66106 5.51193 5.62386L5.60295 5.33631L5.36032 5.15711C5.32892 5.13386 5.34509 5.08411 5.38415 5.08377L5.68576 5.08147L5.78117 4.79534C5.79352 4.75833 5.84591 4.75833 5.85827 4.79534Z" fill="#F5F5F5"/>
<path d="M5.85827 6.29537L5.95368 6.58151L6.25529 6.5838C6.29435 6.58414 6.31051 6.63395 6.27912 6.65714L6.03649 6.83634L6.12751 7.12389C6.13932 7.16109 6.09689 7.19195 6.0651 7.1692L5.81969 6.99381L5.57433 7.1692C5.54255 7.19191 5.50021 7.16109 5.51193 7.12389L5.60295 6.83634L5.36032 6.65714C5.32892 6.6339 5.34509 6.58414 5.38415 6.5838L5.68576 6.58151L5.78117 6.29537C5.79352 6.25831 5.84591 6.25831 5.85827 6.29537Z" fill="#F5F5F5"/>
<path d="M5.85827 7.7915L5.95368 8.07764L6.25529 8.07993C6.29435 8.08027 6.31051 8.13008 6.27912 8.15327L6.03649 8.33247L6.12751 8.62002C6.13932 8.65723 6.09689 8.68809 6.0651 8.66533L5.81969 8.48994L5.57433 8.66533C5.54255 8.68804 5.50021 8.65723 5.51193 8.62002L5.60295 8.33247L5.36032 8.15327C5.32892 8.13003 5.34509 8.08027 5.38415 8.07993L5.68576 8.07764L5.78117 7.7915C5.79352 7.75439 5.84591 7.75439 5.85827 7.7915Z" fill="#F5F5F5"/>
<path d="M7.01838 2.53362L7.11379 2.81975L7.4154 2.82205C7.45446 2.82239 7.47062 2.87219 7.43923 2.89538L7.1966 3.07458L7.28762 3.36213C7.29943 3.39934 7.257 3.4302 7.22521 3.40744L6.97985 3.23205L6.73449 3.40744C6.7027 3.43015 6.66037 3.39934 6.67209 3.36213L6.7631 3.07458L6.52048 2.89538C6.48908 2.87214 6.50524 2.82239 6.5443 2.82205L6.84592 2.81975L6.94133 2.53362C6.95368 2.49661 7.00602 2.49661 7.01838 2.53362Z" fill="#F5F5F5"/>
<path d="M7.01838 4.02975L7.11379 4.31588L7.4154 4.31817C7.45446 4.31852 7.47062 4.36832 7.43923 4.39151L7.1966 4.57071L7.28762 4.85826C7.29943 4.89547 7.257 4.92632 7.22521 4.90357L6.97985 4.72818L6.73449 4.90357C6.7027 4.92628 6.66037 4.89551 6.67209 4.85826L6.7631 4.57071L6.52048 4.39151C6.48908 4.36827 6.50524 4.31852 6.5443 4.31817L6.84592 4.31588L6.94133 4.02975C6.95368 3.99269 7.00602 3.99269 7.01838 4.02975Z" fill="#F5F5F5"/>
<path d="M7.01838 5.53365L7.11379 5.81979L7.4154 5.82208C7.45446 5.82242 7.47062 5.87223 7.43923 5.89542L7.1966 6.07462L7.28762 6.36217C7.29943 6.39937 7.257 6.43023 7.22521 6.40748L6.97985 6.23209L6.73449 6.40748C6.7027 6.43019 6.66037 6.39937 6.67209 6.36217L6.7631 6.07462L6.52048 5.89542C6.48908 5.87218 6.50524 5.82242 6.5443 5.82208L6.84592 5.81979L6.94133 5.53365C6.95368 5.49659 7.00602 5.49659 7.01838 5.53365Z" fill="#F5F5F5"/>
<path d="M7.01838 7.02581L7.11379 7.31194L7.4154 7.31423C7.45446 7.31457 7.47062 7.36438 7.43923 7.38757L7.1966 7.56677L7.28762 7.85432C7.29943 7.89153 7.257 7.92239 7.22521 7.89963L6.97985 7.72424L6.73449 7.89963C6.7027 7.92234 6.66037 7.89153 6.67209 7.85432L6.7631 7.56677L6.52048 7.38757C6.48908 7.36433 6.50524 7.31457 6.5443 7.31423L6.84592 7.31194L6.94133 7.02581C6.95368 6.98879 7.00602 6.98879 7.01838 7.02581Z" fill="#F5F5F5"/>
<path d="M8.17853 1.80319L8.27394 2.08932L8.57555 2.09161C8.61462 2.09195 8.63078 2.14176 8.59938 2.16495L8.35676 2.34415L8.44777 2.6317C8.45959 2.66891 8.41716 2.69976 8.38537 2.67701L8.14001 2.50162L7.89465 2.67701C7.86286 2.69972 7.82053 2.66891 7.83224 2.6317L7.92326 2.34415L7.68063 2.16495C7.64924 2.14171 7.6654 2.09195 7.70446 2.09161L8.00607 2.08932L8.10148 1.80319C8.11374 1.76613 8.16618 1.76613 8.17853 1.80319Z" fill="#F5F5F5"/>
<path d="M8.17853 3.29924L8.27394 3.58538L8.57555 3.58767C8.61462 3.58801 8.63078 3.63782 8.59938 3.66101L8.35676 3.84021L8.44777 4.12776C8.45959 4.16496 8.41716 4.19582 8.38537 4.17307L8.14001 3.99768L7.89465 4.17307C7.86286 4.19577 7.82053 4.16496 7.83224 4.12776L7.92326 3.84021L7.68063 3.66101C7.64924 3.63777 7.6654 3.58801 7.70446 3.58767L8.00607 3.58538L8.10148 3.29924C8.11374 3.26223 8.16618 3.26223 8.17853 3.29924Z" fill="#F5F5F5"/>
<path d="M8.17853 4.79534L8.27394 5.08147L8.57555 5.08377C8.61462 5.08411 8.63078 5.13391 8.59938 5.15711L8.35676 5.33631L8.44777 5.62386C8.45959 5.66106 8.41716 5.69192 8.38537 5.66917L8.14001 5.49378L7.89465 5.66917C7.86286 5.69187 7.82053 5.66106 7.83224 5.62386L7.92326 5.33631L7.68063 5.15711C7.64924 5.13386 7.6654 5.08411 7.70446 5.08377L8.00607 5.08147L8.10148 4.79534C8.11374 4.75833 8.16618 4.75833 8.17853 4.79534Z" fill="#F5F5F5"/>
<path d="M8.17853 6.29537L8.27394 6.58151L8.57555 6.5838C8.61462 6.58414 8.63078 6.63395 8.59938 6.65714L8.35676 6.83634L8.44777 7.12389C8.45959 7.16109 8.41716 7.19195 8.38537 7.1692L8.14001 6.99381L7.89465 7.1692C7.86286 7.19191 7.82053 7.16109 7.83224 7.12389L7.92326 6.83634L7.68063 6.65714C7.64924 6.6339 7.6654 6.58414 7.70446 6.5838L8.00607 6.58151L8.10148 6.29537C8.11374 6.25831 8.16618 6.25831 8.17853 6.29537Z" fill="#F5F5F5"/>
<path d="M8.17853 7.7915L8.27394 8.07764L8.57555 8.07993C8.61462 8.08027 8.63078 8.13008 8.59938 8.15327L8.35676 8.33247L8.44777 8.62002C8.45959 8.65723 8.41716 8.68809 8.38537 8.66533L8.14001 8.48994L7.89465 8.66533C7.86286 8.68804 7.82053 8.65723 7.83224 8.62002L7.92326 8.33247L7.68063 8.15327C7.64924 8.13003 7.6654 8.08027 7.70446 8.07993L8.00607 8.07764L8.10148 7.7915C8.11374 7.75439 8.16618 7.75439 8.17853 7.7915Z" fill="#F5F5F5"/>
<path d="M9.34259 2.53362L9.438 2.81975L9.73961 2.82205C9.77868 2.82239 9.79484 2.87219 9.76344 2.89538L9.52082 3.07458L9.61183 3.36213C9.62365 3.39934 9.58122 3.4302 9.54943 3.40744L9.30407 3.23205L9.05871 3.40744C9.02692 3.43015 8.98459 3.39934 8.99631 3.36213L9.08732 3.07458L8.8447 2.89538C8.8133 2.87214 8.82946 2.82239 8.86852 2.82205L9.17013 2.81975L9.26554 2.53362C9.27785 2.49661 9.33029 2.49661 9.34259 2.53362Z" fill="#F5F5F5"/>
<path d="M9.34259 4.02975L9.438 4.31588L9.73961 4.31817C9.77868 4.31852 9.79484 4.36832 9.76344 4.39151L9.52082 4.57071L9.61183 4.85826C9.62365 4.89547 9.58122 4.92632 9.54943 4.90357L9.30407 4.72818L9.05871 4.90357C9.02692 4.92628 8.98459 4.89551 8.99631 4.85826L9.08732 4.57071L8.8447 4.39151C8.8133 4.36827 8.82946 4.31852 8.86852 4.31817L9.17013 4.31588L9.26554 4.02975C9.27785 3.99269 9.33029 3.99269 9.34259 4.02975Z" fill="#F5F5F5"/>
<path d="M9.34259 5.53365L9.438 5.81979L9.73961 5.82208C9.77868 5.82242 9.79484 5.87223 9.76344 5.89542L9.52082 6.07462L9.61183 6.36217C9.62365 6.39937 9.58122 6.43023 9.54943 6.40748L9.30407 6.23209L9.05871 6.40748C9.02692 6.43019 8.98459 6.39937 8.99631 6.36217L9.08732 6.07462L8.8447 5.89542C8.8133 5.87218 8.82946 5.82242 8.86852 5.82208L9.17013 5.81979L9.26554 5.53365C9.27785 5.49659 9.33029 5.49659 9.34259 5.53365Z" fill="#F5F5F5"/>
<path d="M9.34259 7.02581L9.438 7.31194L9.73961 7.31423C9.77868 7.31457 9.79484 7.36438 9.76344 7.38757L9.52082 7.56677L9.61183 7.85432C9.62365 7.89153 9.58122 7.92239 9.54943 7.89963L9.30407 7.72424L9.05871 7.89963C9.02692 7.92234 8.98459 7.89153 8.99631 7.85432L9.08732 7.56677L8.8447 7.38757C8.8133 7.36433 8.82946 7.31457 8.86852 7.31423L9.17013 7.31194L9.26554 7.02581C9.27785 6.98879 9.33029 6.98879 9.34259 7.02581Z" fill="#F5F5F5"/>
<path d="M10.5067 1.80319L10.6021 2.08932L10.9037 2.09161C10.9427 2.09195 10.9589 2.14176 10.9275 2.16495L10.6849 2.34415L10.7759 2.6317C10.7877 2.66891 10.7453 2.69976 10.7135 2.67701L10.4681 2.50162L10.2228 2.67701C10.191 2.69972 10.1487 2.66891 10.1604 2.6317L10.2514 2.34415L10.0088 2.16495C9.97736 2.14171 9.99352 2.09195 10.0326 2.09161L10.3342 2.08932L10.4296 1.80319C10.4419 1.76613 10.4943 1.76613 10.5067 1.80319Z" fill="#F5F5F5"/>
<path d="M10.5067 3.29924L10.6021 3.58538L10.9037 3.58767C10.9427 3.58801 10.9589 3.63782 10.9275 3.66101L10.6849 3.84021L10.7759 4.12776C10.7877 4.16496 10.7453 4.19582 10.7135 4.17307L10.4681 3.99768L10.2228 4.17307C10.191 4.19577 10.1487 4.16496 10.1604 4.12776L10.2514 3.84021L10.0088 3.66101C9.97736 3.63777 9.99352 3.58801 10.0326 3.58767L10.3342 3.58538L10.4296 3.29924C10.4419 3.26223 10.4943 3.26223 10.5067 3.29924Z" fill="#F5F5F5"/>
<path d="M10.5067 4.79534L10.6021 5.08147L10.9037 5.08377C10.9427 5.08411 10.9589 5.13391 10.9275 5.15711L10.6849 5.33631L10.7759 5.62386C10.7877 5.66106 10.7453 5.69192 10.7135 5.66917L10.4681 5.49378L10.2228 5.66917C10.191 5.69187 10.1487 5.66106 10.1604 5.62386L10.2514 5.33631L10.0088 5.15711C9.97736 5.13386 9.99352 5.08411 10.0326 5.08377L10.3342 5.08147L10.4296 4.79534C10.4419 4.75833 10.4943 4.75833 10.5067 4.79534Z" fill="#F5F5F5"/>
<path d="M10.5067 6.29537L10.6021 6.58151L10.9037 6.5838C10.9427 6.58414 10.9589 6.63395 10.9275 6.65714L10.6849 6.83634L10.7759 7.12389C10.7877 7.16109 10.7453 7.19195 10.7135 7.1692L10.4681 6.99381L10.2228 7.1692C10.191 7.19191 10.1487 7.16109 10.1604 7.12389L10.2514 6.83634L10.0088 6.65714C9.97736 6.6339 9.99352 6.58414 10.0326 6.5838L10.3342 6.58151L10.4296 6.29537C10.4419 6.25831 10.4943 6.25831 10.5067 6.29537Z" fill="#F5F5F5"/>
<path d="M10.5067 7.7915L10.6021 8.07764L10.9037 8.07993C10.9427 8.08027 10.9589 8.13008 10.9275 8.15327L10.6849 8.33247L10.7759 8.62002C10.7877 8.65723 10.7453 8.68809 10.7135 8.66533L10.4681 8.48994L10.2228 8.66533C10.191 8.68804 10.1487 8.65723 10.1604 8.62002L10.2514 8.33247L10.0088 8.15327C9.97736 8.13003 9.99352 8.08027 10.0326 8.07993L10.3342 8.07764L10.4296 7.7915C10.4419 7.75439 10.4943 7.75439 10.5067 7.7915Z" fill="#F5F5F5"/>
</svg>
