<svg width="24" height="24" viewBox="0 0 24 24" fill="none" xmlns="http://www.w3.org/2000/svg">
<path d="M0.951488 23.6353H4.90789V7.23402H0.951488V23.6353ZM2.95795 5.28007C4.34269 5.28007 5.38831 4.21428 5.38831 2.85244C5.38831 1.49059 4.34269 0.424805 2.95795 0.424805C1.54495 0.424805 0.527588 1.49059 0.527588 2.85244C0.527588 4.21428 1.54495 5.28007 2.95795 5.28007Z" fill="white"/>
<path d="M19.7817 23.6353H23.7381V14.0136C23.7381 9.48402 21.1382 6.99717 17.4927 6.99717C15.4862 6.99717 13.7906 7.88533 12.7732 9.27678V7.23402H8.81682V23.6353H12.7732V14.5761C12.7732 11.9413 14.158 10.5202 16.3057 10.5202C18.397 10.5202 19.7817 11.9413 19.7817 14.5761V23.6353Z" fill="white"/>
</svg>
