<svg width="31" height="31" viewBox="0 0 31 31" fill="none" xmlns="http://www.w3.org/2000/svg">
<path d="M28.1237 0H2.87631C1.28777 0 0 1.28777 0 2.87631V28.1237C0 29.7122 1.28777 31 2.87631 31H28.1237C29.7122 31 31 29.7122 31 28.1237V2.87631C31 1.28777 29.7122 0 28.1237 0Z" fill="#0B63BD"/>
<path d="M11.167 8.45455C11.167 8.97709 11.0121 9.48791 10.7218 9.92239C10.4315 10.3569 10.0188 10.6955 9.53605 10.8955C9.05328 11.0954 8.52205 11.1478 8.00954 11.0458C7.49704 10.9439 7.02627 10.6923 6.65677 10.3228C6.28728 9.95326 6.03565 9.48249 5.9337 8.96998C5.83176 8.45748 5.88408 7.92625 6.08405 7.44348C6.28402 6.96071 6.62266 6.54808 7.05714 6.25776C7.49162 5.96745 8.00243 5.8125 8.52498 5.8125C9.2257 5.8125 9.89771 6.09086 10.3932 6.58634C10.8887 7.08182 11.167 7.75383 11.167 8.45455Z" fill="white"/>
<path d="M10.5681 12.8584V24.5309C10.5686 24.617 10.552 24.7024 10.5194 24.7821C10.4868 24.8618 10.4387 24.9342 10.378 24.9953C10.3173 25.0563 10.2451 25.1048 10.1656 25.1378C10.0861 25.1709 10.0008 25.1879 9.91468 25.1879H7.12996C7.04385 25.1881 6.95854 25.1713 6.87894 25.1385C6.79934 25.1056 6.72702 25.0574 6.66613 24.9965C6.60524 24.9356 6.55698 24.8633 6.52414 24.7837C6.49129 24.7041 6.4745 24.6188 6.47473 24.5327V12.8584C6.47473 12.6846 6.54377 12.5179 6.66665 12.395C6.78952 12.2722 6.95618 12.2031 7.12996 12.2031H9.91468C10.0881 12.2036 10.2544 12.2728 10.3769 12.3957C10.4994 12.5185 10.5681 12.6849 10.5681 12.8584Z" fill="white"/>
<path d="M25.1241 18.9345V24.5849C25.1243 24.6641 25.1089 24.7425 25.0787 24.8157C25.0485 24.8889 25.0041 24.9554 24.9481 25.0114C24.8922 25.0674 24.8257 25.1117 24.7525 25.1419C24.6793 25.1721 24.6008 25.1875 24.5217 25.1873H21.5274C21.4482 25.1875 21.3697 25.1721 21.2966 25.1419C21.2234 25.1117 21.1569 25.0674 21.1009 25.0114C21.0449 24.9554 21.0005 24.8889 20.9703 24.8157C20.9402 24.7425 20.9247 24.6641 20.925 24.5849V19.1088C20.925 18.2916 21.1645 15.5298 18.7884 15.5298C16.9478 15.5298 16.5726 17.4197 16.4987 18.2687V24.5849C16.4987 24.7432 16.4364 24.8951 16.3253 25.0078C16.2143 25.1205 16.0633 25.185 15.9051 25.1873H13.0129C12.9339 25.1873 12.8556 25.1717 12.7827 25.1414C12.7097 25.1111 12.6434 25.0667 12.5876 25.0108C12.5318 24.9548 12.4876 24.8884 12.4575 24.8153C12.4274 24.7422 12.4121 24.6639 12.4123 24.5849V12.8067C12.4121 12.7277 12.4274 12.6494 12.4575 12.5763C12.4876 12.5032 12.5318 12.4368 12.5876 12.3808C12.6434 12.3249 12.7097 12.2805 12.7827 12.2502C12.8556 12.2199 12.9339 12.2043 13.0129 12.2043H15.9051C16.0648 12.2043 16.2181 12.2678 16.331 12.3807C16.444 12.4937 16.5075 12.6469 16.5075 12.8067V13.8248C17.1909 12.7996 18.2037 12.0088 20.3649 12.0088C25.1522 12.0088 25.1241 16.4791 25.1241 18.9345Z" fill="white"/>
</svg>
