<svg width="33" height="26" viewBox="0 0 33 26" fill="none" xmlns="http://www.w3.org/2000/svg">
<path d="M32.3333 3.36884C31.1618 3.86812 29.9137 4.19907 28.6123 4.35975C29.9511 3.58309 30.9728 2.36263 31.4532 0.891566C30.205 1.61466 28.8269 2.12542 27.3582 2.41045C26.173 1.18425 24.4838 0.424805 22.6411 0.424805C19.0658 0.424805 16.1875 3.2445 16.1875 6.70121C16.1875 7.19858 16.2308 7.67682 16.3372 8.1321C10.9684 7.87768 6.21778 5.37745 3.02644 1.56875C2.46928 2.50801 2.14247 3.58309 2.14247 4.74043C2.14247 6.91355 3.29419 8.8399 5.01094 9.95515C3.97341 9.93602 2.95556 9.64334 2.09325 9.18231C2.09325 9.20144 2.09325 9.22631 2.09325 9.25118C2.09325 12.3004 4.33172 14.8332 7.26713 15.4166C6.74147 15.5563 6.16856 15.6232 5.574 15.6232C5.16056 15.6232 4.74319 15.6003 4.35141 15.5161C5.18813 18.001 7.56244 19.8279 10.3856 19.8872C8.1885 21.5572 5.39878 22.5634 2.37872 22.5634C1.84913 22.5634 1.34119 22.5405 0.833252 22.4774C3.69385 24.2698 7.08403 25.2932 10.74 25.2932C22.6234 25.2932 29.1203 15.7284 29.1203 7.4377C29.1203 7.16032 29.1104 6.89251 29.0966 6.62661C30.3783 5.74282 31.4552 4.63905 32.3333 3.36884Z" fill="white"/>
</svg>
